<svg version="1" xmlns="http://www.w3.org/2000/svg" width="685.333" height="685.333" viewBox="0 0 514.000000 514.000000"><path d="M94.5 1.5c-26 4.8-44.9 14.5-62 31.9C14.7 51.4 4.3 72.5 1 97.5c-.8 6.7-1 49.3-.8 165C.6 438-.1 423.1 8.4 444.2c15.4 38 49.8 64 91.1 68.8 12.9 1.4 301 1.4 314.7-.1 38.2-4.1 70.4-26.4 87.3-60.4 6.7-13.3 10.1-25 11.5-39.3.8-7.4 1-58.1.8-163.7-.4-143.2-.5-153.5-2.2-160.5-5.5-23.1-14.9-40.3-30.6-56.1C465.7 17.5 448.2 8 425 2.4 417.9.7 408 .6 259.5.4 133.2.2 100.1.4 94.5 1.5zm163 175.6c19 3.8 38 12.4 53.4 24 11.1 8.4 25.6 23.8 32.1 34.2 4.5 7.1 5.9 8.6 7.5 8.2 6.1-1.6 21.4-1.6 28.5-.1 10.2 2.1 24.1 9.1 31.7 16.1C423.4 271 433 291 433 306.2v2.8h-33.5l-2.4-3.6c-3-4.3-16.2-17.7-21.7-21.9-5.5-4.2-12.6-8.7-13-8.2-.3.2.2 4.4 1 9.3.9 4.9 1.7 12.5 1.8 16.9l.3 8-135.4.3-135.4.2.6-9.7c2.4-38.3 22-74.6 53-98.2 19.8-15.1 42.9-24.4 67.2-27.1 11.1-1.2 30.1-.3 42 2.1z"/></svg>